<?xml version="1.0" encoding="UTF-8" standalone="no"?>
<!-- Created with Inkscape (http://www.inkscape.org/) -->

<svg
   width="608.71338"
   height="462.38797"
   viewBox="0 0 608.71338 462.38796"
   version="1.1"
   id="svg1"
   xml:space="preserve"
   xmlns="http://www.w3.org/2000/svg"
   xmlns:svg="http://www.w3.org/2000/svg"><defs
     id="defs1" /><g
     id="layer1"
     transform="translate(-2557.9506,-120.87293)"><path
       style="fill:#ed9c38;fill-opacity:0.996078;stroke-width:1.36021"
       d="m 2854.4448,582.8919 c -10.297,-1.4113 -20.1656,-5.4467 -28.5571,-11.67695 l -3.2584,-2.41908 -3.6657,-3.76656 c -4.0328,-4.14383 -6.3373,-7.03283 -8.727,-10.94093 -1.5455,-2.52733 -3.8983,-6.98204 -3.8983,-7.38076 0,-0.11152 25.0978,-0.20262 55.773,-0.20262 h 55.7731 l -8e-4,0.28737 c 0,0.61352 -3.2519,6.5624 -5.0787,9.29561 -9.0108,13.48286 -23.0106,22.86837 -38.9445,26.10839 l -3.6994,0.75232 -6.5165,0.15613 -6.5164,0.15612 z m -167.0535,-61.29109 c -2.4124,-0.94383 -4.1984,-2.33628 -5.5895,-4.3581 l -1.1284,-1.64013 -0.6524,-2.24421 -0.6523,-2.2442 0.234,-1.99162 c 0.3725,-3.16927 0.8211,-3.93615 12.8849,-22.02528 12.5075,-18.75428 14.7055,-22.40829 20.3388,-33.81404 7.1892,-14.55516 11.6576,-27.4166 14.224,-40.94023 l 0.8366,-4.40817 0.2651,-57.88128 0.2649,-57.8813 0.4311,-3.44989 c 3.8482,-30.79318 12.0249,-51.52224 28.5767,-72.44742 l 3.0323,-3.83319 5.4036,-5.38008 5.4038,-5.38009 4.2164,-3.37765 c 12.9951,-10.40975 27.9337,-18.0805 44.9103,-23.06087 l 5.0448,-1.47999 0.1698,-10.94292 0.1699,-10.94294 0.83,-3.21739 0.8302,-3.2174 1.4774,-3.15292 c 3.8928,-8.30674 9.9395,-14.35238 18.2505,-18.24703 l 3.1592,-1.48047 3.4026,-0.84454 3.4029,-0.84453 5.1747,0.0214 5.1748,0.0215 3.6641,0.96966 3.664,0.96967 3.4274,1.7217 c 4.2457,2.13273 7.3672,4.45495 10.6124,7.89502 l 2.5019,2.65215 1.9526,3.1728 c 1.9909,3.23512 3.3509,6.40542 4.5103,10.51378 l 0.6489,2.29993 0.163,11.39816 0.1629,11.39813 1.5951,0.41241 c 52.504,13.57471 87.581,55.40497 94.8085,113.06149 l 0.6487,5.17481 0.2634,58.07295 0.2633,58.07294 0.4262,2.38496 c 3.2103,17.95916 9.1963,33.47176 20.6756,53.57973 l 3.2824,5.74979 11.0082,16.51497 c 6.0545,9.0832 11.3986,17.27654 11.8757,18.20759 l 0.8675,1.69279 0.1698,2.68328 0.1682,2.68327 -0.8174,2.16463 -0.8171,2.16463 -1.48,1.6815 -1.4802,1.68148 -2.0528,1.13701 -2.0528,1.13698 -173.4523,0.0789 -173.4521,0.0789 z m 174.72,-352.06863 h 9.9664 l 1.0539,0.28367 1.0543,0.28365 v -7.2208 -7.22081 l -0.5849,-1.96925 -0.5848,-1.96925 -1.253,-1.64283 c -0.6892,-0.90356 -1.9596,-2.11737 -2.8231,-2.69735 l -1.5703,-1.05453 -2.3942,-0.61341 -2.3944,-0.61342 -1.7682,0.25503 c -2.1869,0.31544 -5.2003,1.65431 -6.835,3.03686 l -1.2334,1.04324 -1.2581,2.55419 -1.2581,2.55422 -0.1304,7.78767 -0.1303,7.78767 1.0884,-0.29228 1.0884,-0.29227 z M 2597.494,463.42037 c -23.0451,-39.20489 -36.2631,-83.23254 -39.1557,-130.42456 l -0.3877,-6.32478 v -11.11627 -11.11627 l 0.3901,-6.32478 c 2.5469,-41.29744 12.5952,-79.03123 30.4698,-114.42095 4.0769,-8.07216 10.3348,-19.30145 11.2949,-20.26839 l 0.3335,-0.33577 9.8987,6.04622 c 5.4443,3.32543 10.1045,6.23642 10.3559,6.46888 l 0.4568,0.42267 -2.2461,3.70047 c -40.0138,65.91784 -47.6559,155.19162 -19.7076,230.22046 5.3987,14.49305 15.1779,34.70027 21.5008,44.42715 l 0.5358,0.8246 -10.372,6.36266 c -5.7047,3.49946 -10.4506,6.36266 -10.546,6.36266 -0.094,0 -1.3651,-2.02679 -2.8212,-4.504 z m 516.2486,-1.68136 c -5.577,-3.40684 -10.2238,-6.26696 -10.3263,-6.35582 -0.2034,-0.17659 0.075,-0.69585 4.1684,-7.77477 20.6439,-35.6988 32.911,-79.96118 34.1011,-123.04564 l 0.249,-9.00802 -0.246,-9.00802 c -1.1933,-43.71572 -13.1538,-86.54978 -34.6215,-123.98822 -2.011,-3.50697 -3.6558,-6.49762 -3.6552,-6.6459 0,-0.28669 19.71,-12.46504 20.4522,-12.63757 l 0.4376,-0.10173 3.1354,5.46825 c 24.4782,42.69303 36.9177,86.52744 38.8423,136.87156 l 0.3845,10.05338 -0.3877,10.12102 c -1.6755,43.75163 -11.6425,83.52535 -30.2457,120.69638 -3.7125,7.41791 -10.7346,20.07899 -11.6833,21.06579 l -0.465,0.48357 z m -463.7385,-31.27924 c -18.8043,-32.72637 -29.5211,-69.4095 -31.0905,-106.42092 l -0.3651,-8.61275 0.3598,-8.81142 c 1.5858,-38.8255 12.1531,-74.55816 31.6737,-107.10077 l 2.4662,-4.11145 2.9518,1.83604 c 1.6235,1.00982 6.1429,3.79454 10.0431,6.18827 3.9004,2.39374 7.2472,4.48746 7.4373,4.65274 l 0.3457,0.3005 -2.117,3.56415 c -15.631,26.31504 -24.1874,52.19826 -27.5989,83.48631 l -0.4808,4.40818 v 14.94947 14.94947 l 0.5031,4.59983 c 3.2961,30.14539 12.5917,58.62123 27.6319,84.64808 1.0757,1.86135 1.9556,3.53345 1.9556,3.71575 0,0.29551 -19.0702,11.95074 -20.3693,12.44926 l -0.525,0.2015 z m 410.8587,-1.26643 c -5.5867,-3.36368 -10.1978,-6.24555 -10.2471,-6.40409 -0.048,-0.15853 0.9495,-2.09947 2.2191,-4.31313 17.5561,-30.61301 27.006,-63.53147 28.1702,-98.12986 l 0.2515,-7.47474 -0.4242,-7.60618 c -0.5329,-9.54897 -1.301,-16.57604 -2.7641,-25.29061 l -1.147,-6.83103 -1.8604,-7.35179 c -2.1943,-8.66986 -4.7414,-16.52878 -8.0952,-24.97806 l -2.4321,-6.12667 -4.1032,-8.24783 c -2.2568,-4.53629 -5.4118,-10.47539 -7.0112,-13.198 -1.5995,-2.72258 -2.8646,-4.98776 -2.8113,-5.03371 0.6292,-0.54266 19.8154,-12.21826 20.2817,-12.34228 l 0.6357,-0.16899 2.5887,4.34785 c 18.6185,31.27004 29.1522,66.26333 31.2516,103.81932 l 0.4392,7.85806 -0.2409,8.68414 c -0.9024,32.52332 -8.0673,62.26651 -22.424,93.08726 -3.2108,6.89321 -11.149,21.53877 -11.7706,21.71654 -0.1918,0.0549 -4.9197,-2.65244 -10.5064,-6.01616 z"
       id="path3" /></g></svg>
